<svg width="207" height="209" viewBox="0 0 207 209" fill="none" xmlns="http://www.w3.org/2000/svg">
<g opacity="0.1">
<path d="M128.215 104.081C128.215 117.756 117.128 128.842 103.453 128.842C89.777 128.842 78.6907 117.756 78.6907 104.081C78.6907 90.4049 89.777 79.3187 103.453 79.3187C117.128 79.3187 128.215 90.4049 128.215 104.081Z" fill="white"/>
<path fill-rule="evenodd" clip-rule="evenodd" d="M103.453 208.081C155.846 208.081 199.19 169.338 206.399 118.938H145.488C139.369 136.249 122.859 148.652 103.453 148.652C84.046 148.652 67.5361 136.249 61.4174 118.938L0.505842 118.938C7.71497 169.338 51.0593 208.081 103.453 208.081ZM61.4174 89.2234L0.505842 89.2234C7.71497 38.8236 51.0593 0.0805664 103.453 0.0805664C155.846 0.0805664 199.19 38.8236 206.399 89.2234H145.488C139.369 71.912 122.859 59.5091 103.453 59.5091C84.046 59.5091 67.5361 71.912 61.4174 89.2234ZM128.215 104.081C128.215 117.756 117.128 128.842 103.453 128.842C89.777 128.842 78.6907 117.756 78.6907 104.081C78.6907 90.4049 89.777 79.3187 103.453 79.3187C117.128 79.3187 128.215 90.4049 128.215 104.081Z" fill="white"/>
</g>
</svg>
